<svg width="22" height="21" viewBox="0 0 22 21" fill="none" xmlns="http://www.w3.org/2000/svg">
<path d="M18 6.76688H13.5V3.01688C13.5756 2.29682 13.362 1.57623 12.9063 1.01363C12.4506 0.451024 11.7901 0.0924835 11.07 0.0168757C10.8807 -0.00562524 10.6893 -0.00562524 10.5 0.0168757H9.3225C9.0718 0.0237442 8.83048 0.113634 8.63637 0.272444C8.44227 0.431255 8.30638 0.650003 8.25 0.894376V0.984376L7.5 5.73938L4.845 9.76688H0V20.2669H14.25C19.83 20.2669 21 17.0044 21 14.2669V9.76688C21.0756 9.04682 20.862 8.32623 20.4063 7.76363C19.9506 7.20102 19.2901 6.84248 18.57 6.76688C18.3807 6.74437 18.1893 6.74437 18 6.76688ZM4.5 18.7669H1.5V11.2669H4.5V18.7669ZM19.5 14.2669C19.5 17.3344 17.835 18.7669 14.25 18.7669H6V10.7419L9 6.29438L9.5475 2.26688L9.6525 1.51688H10.5C11.58 1.51688 12 1.93688 12 3.01688V8.26688H18C19.08 8.26688 19.5 8.68688 19.5 9.76688V14.2669Z" fill="white"/>
</svg>
